:SAMPLES-PER-SECOND 30
:FULLY-SPECIFIED
:DEGREES
161
root  -2.60997 40.04 -3.30296 125.563 -86.5229 -131.516
RightUpLeg  5.10229 -8.73622 1.29232
RightLeg  13.7306 -7.08103 4.65509
RightFoot  -12.257 -0.0827271 0.115053
RightToes  5.82063e-011 0 -3.6325e-017
Spine  4.30883 1.52302 15.6175
Spine1  11.3935 4.00386 -5.71755
HEad  -1.47564 0.889678 -4.35895
LeftShoulder1  9.58538 -13.231 -50.0044
LeftArm  -2.50342 21.7671 -25.7847
LeftForeArm  33.2204 -5.40025 -7.51983
LeftHand  -0.244104 0.0205437 5.32207
RightShoulder  6.47232 10.2204 40.9648
RightArm  10.3894 9.58112 30.8015
RightForeArm  -3.65033 27.691 6.16808
RightHand  -0.856152 1.05103 -15.511
LeftUpLeg  -21.2768 4.9498 2.68756
LeftLeg  36.2053 3.50075 3.1289
LeftFoot  0.342577 0.197145 -1.94588
LeftToes  4.36525e-011 -9.98543e-011 1.0027e-011
162
root  -4.02113 40.0224 -3.38886 134.032 -86.3241 -139.427
RightUpLeg  7.5845 -8.51445 0.939468
RightLeg  12.2288 -6.5412 4.76993
RightFoot  -13.35 -0.0897668 0.064853
RightToes  5.82063e-011 0 -3.6325e-017
Spine  3.59251 1.90828 15.74
Spine1  11.5597 4.52258 -7.02312
HEad  -2.4024 1.00445 -4.58266
LeftShoulder1  9.50593 -13.1974 -49.6914
LeftArm  -1.98457 25.0923 -25.2567
LeftForeArm  33.0611 -6.46575 -7.60001
LeftHand  -0.244104 0.0205437 5.32207
RightShoulder  6.43274 10.2301 40.6622
RightArm  10.1388 11.4074 31.3142
RightForeArm  -2.98855 29.3526 6.53861
RightHand  -0.881869 1.08412 -15.886
LeftUpLeg  -21.0016 7.61183 1.39235
LeftLeg  23.3297 1.92176 1.42536
LeftFoot  0.771462 0.23326 -2.243
LeftToes  4.36525e-011 -9.98543e-011 1.0027e-011
163
root  -5.44424 39.992 -3.45267 144.031 -85.7152 -149.12
RightUpLeg  10.583 -8.45639 0.338837
RightLeg  10.3162 -5.31825 5.00671
RightFoot  -14.2701 -0.0960689 -0.00259699
RightToes  5.82063e-011 0 -3.6325e-017
Spine  3.25831 2.38074 15.8948
Spine1  11.7198 5.2874 -8.54805
HEad  -3.37454 1.06077 -4.79741
LeftShoulder1  9.42867 -13.1659 -49.381
LeftArm  -1.48951 28.0656 -24.9084
LeftForeArm  32.668 -7.43051 -7.61688
LeftHand  -0.244104 0.0205437 5.32207
RightShoulder  6.41337 10.2548 40.45
RightArm  9.74382 12.3301 31.6802
RightForeArm  -2.67967 30.7694 6.87884
RightHand  -0.956764 1.39314 -16.4533
LeftUpLeg  -19.4629 9.23555 0.897736
LeftLeg  9.44867 2.39581 -0.936313
LeftFoot  1.90472 0.268858 -2.41404
LeftToes  4.36525e-011 -9.98543e-011 1.0027e-011
164
root  -6.93146 39.8189 -3.48167 151.198 -84.7895 -156.239
RightUpLeg  13.5224 -8.66303 -0.584286
RightLeg  9.44037 -3.39233 5.30792
RightFoot  -15.7758 -0.0691102 0.929989
RightToes  5.82063e-011 0 -3.6325e-017
Spine  3.20482 2.78898 15.9487
Spine1  11.7859 5.96047 -9.65134
HEad  -4.34642 1.33335 -4.95026
LeftShoulder1  9.32065 -13.0299 -49.2164
LeftArm  -1.56021 30.5394 -24.8184
LeftForeArm  31.9445 -8.03353 -7.45835
LeftHand  -0.244104 0.0205437 5.32207
RightShoulder  6.45358 10.3225 40.5088
RightArm  9.91905 12.8161 31.8181
RightForeArm  -2.67284 31.5663 7.08444
RightHand  -1.03417 1.77159 -16.8551
LeftUpLeg  -17.5874 3.38406 3.8591
LeftLeg  -1.70308 12.6007 -5.24022
LeftFoot  3.11264 0.330539 -2.76033
LeftToes  4.36525e-011 -9.98543e-011 1.0027e-011
165
root  -8.50284 39.5153 -3.46711 151.501 -84.2764 -156.57
RightUpLeg  15.8061 -9.38873 -1.54097
RightLeg  10.4203 -1.61561 5.45462
RightFoot  -17.3403 -0.00652206 2.14012
RightToes  5.82063e-011 0 -3.6325e-017
Spine  3.09035 2.85705 15.9874
Spine1  11.7476 6.13013 -10.1777
HEad  -5.38273 1.71255 -4.96188
LeftShoulder1  9.18976 -12.825 -49.1328
LeftArm  -2.55287 32.2221 -25.0687
LeftForeArm  31.0658 -8.01273 -7.12592
LeftHand  -0.244104 0.0205437 5.32207
RightShoulder  6.51171 10.364 40.7726
RightArm  10.4171 12.9247 31.9946
RightForeArm  -2.48745 31.5488 7.0702
RightHand  -1.03977 1.82419 -16.8214
LeftUpLeg  -17.6873 4.16392 3.71957
LeftLeg  -5.06022 16.3337 -6.94368
LeftFoot  2.82497 0.393263 -3.28988
LeftToes  4.36525e-011 -9.98543e-011 1.0027e-011
